<svg version="1.1" baseProfile="full" width="450" height="300" xmlns="http://www.w3.org/2000/svg">
    <rect x="0" y="0" width="50" height="50" fill="grey" />
    <rect x="0" y="50" width="50" height="50" fill="grey" />
    <rect x="0" y="100" width="50" height="50" fill="grey" />
    <rect x="0" y="150" width="50" height="50" fill="grey" />
    <rect x="0" y="200" width="50" height="50" fill="grey" />
    <rect x="50" y="0" width="50" height="50" fill="grey" />
    <rect x="50" y="50" width="50" height="50" fill="grey" />
    <rect x="50" y="100" width="50" height="50" fill="grey" />
    <rect x="50" y="150" width="50" height="50" fill="grey" />
    <rect x="50" y="200" width="50" height="50" fill="grey" />
    <rect x="50" y="250" width="50" height="50" fill="grey" />
    <rect x="100" y="0" width="50" height="50" fill="grey" />
    <rect x="100" y="50" width="50" height="50" fill="grey" />
    <rect x="100" y="100" width="50" height="50" fill="grey" />
    <rect x="100" y="150" width="50" height="50" fill="grey" />
    <rect x="100" y="200" width="50" height="50" fill="grey" />
    <rect x="100" y="250" width="50" height="50" fill="grey" />
    <rect x="150" y="0" width="50" height="50" fill="grey" />
    <rect x="150" y="50" width="50" height="50" fill="grey" />
    <rect x="150" y="100" width="50" height="50" fill="grey" />
    <rect x="150" y="150" width="50" height="50" fill="grey" />
    <rect x="150" y="200" width="50" height="50" fill="grey" />
    <rect x="150" y="250" width="50" height="50" fill="grey" />
    <rect x="200" y="0" width="50" height="50" fill="grey" />
    <rect x="200" y="50" width="50" height="50" fill="grey" />
    <rect x="200" y="100" width="50" height="50" fill="grey" />
    <rect x="200" y="150" width="50" height="50" fill="grey" />
    <rect x="200" y="200" width="50" height="50" fill="grey" />
    <rect x="200" y="250" width="50" height="50" fill="grey" />
    <rect x="250" y="0" width="50" height="50" fill="grey" />
    <rect x="250" y="50" width="50" height="50" fill="grey" />
    <rect x="250" y="100" width="50" height="50" fill="grey" />
    <rect x="250" y="150" width="50" height="50" fill="grey" />
    <rect x="250" y="200" width="50" height="50" fill="grey" />
    <rect x="250" y="250" width="50" height="50" fill="grey" />
    <rect x="300" y="0" width="50" height="50" fill="grey" />
    <rect x="300" y="50" width="50" height="50" fill="grey" />
    <rect x="300" y="100" width="50" height="50" fill="grey" />
    <rect x="300" y="150" width="50" height="50" fill="grey" />
    <rect x="300" y="200" width="50" height="50" fill="grey" />
    <rect x="300" y="250" width="50" height="50" fill="grey" />
    <rect x="350" y="0" width="50" height="50" fill="grey" />
    <rect x="350" y="50" width="50" height="50" fill="grey" />
    <rect x="350" y="100" width="50" height="50" fill="grey" />
    <rect x="350" y="150" width="50" height="50" fill="grey" />
    <rect x="350" y="200" width="50" height="50" fill="grey" />
    <rect x="350" y="250" width="50" height="50" fill="grey" />
    <rect x="400" y="0" width="50" height="50" fill="grey" />
    <rect x="400" y="50" width="50" height="50" fill="grey" />
    <rect x="400" y="100" width="50" height="50" fill="grey" />
    <rect x="400" y="150" width="50" height="50" fill="grey" />
    <rect x="400" y="200" width="50" height="50" fill="grey" />
    <rect x="400" y="250" width="50" height="50" fill="grey" />
    <line x1="50" y1="0" x2="50" y2="300" stroke="black" />
    <line x1="100" y1="0" x2="100" y2="300" stroke="black" />
    <line x1="150" y1="0" x2="150" y2="300" stroke="black" />
    <line x1="200" y1="0" x2="200" y2="300" stroke="black" />
    <line x1="250" y1="0" x2="250" y2="300" stroke="black" />
    <line x1="300" y1="0" x2="300" y2="300" stroke="black" />
    <line x1="350" y1="0" x2="350" y2="300" stroke="black" />
    <line x1="400" y1="0" x2="400" y2="300" stroke="black" />
    <line x1="0" y1="50" x2="450" y2="50" stroke="black" />
    <line x1="0" y1="100" x2="450" y2="100" stroke="black" />
    <line x1="0" y1="150" x2="450" y2="150" stroke="black" />
    <line x1="0" y1="200" x2="450" y2="200" stroke="black" />
    <line x1="0" y1="250" x2="450" y2="250" stroke="black" />
    <circle cx="25" cy="275" r="12" fill="black" />
    <line x1="25" y1="275" x2="42" y2="275" stroke="black" stroke-width="10" />
</svg>